<mxfile host="drawio-plugin" modified="2021-03-17T16:12:53.001Z" agent="5.0 (Windows NT 6.2; Win64; x64) AppleWebKit/537.36 (KHTML, like Gecko) Chrome/84.0.4147.105 Safari/537.36" etag="-wfERYx87FIWHtveqZjZ" version="13.7.9" type="embed"><diagram id="C5RBs43oDa-KdzZeNtuy" name="Page-1"><mxGraphModel dx="899" dy="743" grid="1" gridSize="10" guides="1" tooltips="1" connect="1" arrows="1" fold="1" page="1" pageScale="1" pageWidth="827" pageHeight="1169" math="0" shadow="0"><root><mxCell id="WIyWlLk6GJQsqaUBKTNV-0"/><mxCell id="WIyWlLk6GJQsqaUBKTNV-1" parent="WIyWlLk6GJQsqaUBKTNV-0"/><mxCell id="ALuSZKdQ5Y3KE8GZAsOg-4" value="Player" style="swimlane;fontStyle=0;childLayout=stackLayout;horizontal=1;startSize=26;horizontalStack=0;resizeParent=1;resizeParentMax=0;resizeLast=0;collapsible=1;marginBottom=0;" parent="WIyWlLk6GJQsqaUBKTNV-1" vertex="1"><mxGeometry x="114" y="260" width="200" height="52" as="geometry"/></mxCell><mxCell id="ALuSZKdQ5Y3KE8GZAsOg-5" value="PlayerStates" style="text;strokeColor=none;fillColor=none;align=left;verticalAlign=top;spacingLeft=4;spacingRight=4;overflow=hidden;rotatable=0;points=[[0,0.5],[1,0.5]];portConstraint=eastwest;" parent="ALuSZKdQ5Y3KE8GZAsOg-4" vertex="1"><mxGeometry y="26" width="200" height="26" as="geometry"/></mxCell><mxCell id="ALuSZKdQ5Y3KE8GZAsOg-8" value="NPC" style="swimlane;fontStyle=0;childLayout=stackLayout;horizontal=1;startSize=26;fillColor=none;horizontalStack=0;resizeParent=1;resizeParentMax=0;resizeLast=0;collapsible=1;marginBottom=0;" parent="WIyWlLk6GJQsqaUBKTNV-1" vertex="1"><mxGeometry x="514" y="240" width="210" height="78" as="geometry"/></mxCell><mxCell id="ALuSZKdQ5Y3KE8GZAsOg-9" value="NPCStates" style="text;strokeColor=none;fillColor=none;align=left;verticalAlign=top;spacingLeft=4;spacingRight=4;overflow=hidden;rotatable=0;points=[[0,0.5],[1,0.5]];portConstraint=eastwest;" parent="ALuSZKdQ5Y3KE8GZAsOg-8" vertex="1"><mxGeometry y="26" width="210" height="26" as="geometry"/></mxCell><mxCell id="ALuSZKdQ5Y3KE8GZAsOg-11" value="isFriendly" style="text;strokeColor=none;fillColor=none;align=left;verticalAlign=top;spacingLeft=4;spacingRight=4;overflow=hidden;rotatable=0;points=[[0,0.5],[1,0.5]];portConstraint=eastwest;" parent="ALuSZKdQ5Y3KE8GZAsOg-8" vertex="1"><mxGeometry y="52" width="210" height="26" as="geometry"/></mxCell><mxCell id="ALuSZKdQ5Y3KE8GZAsOg-17" value="CharacterClass Model" style="swimlane;html=1;startSize=20;horizontal=1;childLayout=treeLayout;horizontalTree=0;resizable=0;containerType=tree;" parent="WIyWlLk6GJQsqaUBKTNV-1" vertex="1"><mxGeometry x="90" y="590" width="280" height="190" as="geometry"/></mxCell><mxCell id="ALuSZKdQ5Y3KE8GZAsOg-18" value="CharacterClass" style="whiteSpace=wrap;html=1;" parent="ALuSZKdQ5Y3KE8GZAsOg-17" vertex="1"><mxGeometry x="90" y="40" width="100" height="40" as="geometry"/></mxCell><mxCell id="ALuSZKdQ5Y3KE8GZAsOg-19" value="Shaman" style="whiteSpace=wrap;html=1;" parent="ALuSZKdQ5Y3KE8GZAsOg-17" vertex="1"><mxGeometry x="20" y="130" width="100" height="40" as="geometry"/></mxCell><mxCell id="ALuSZKdQ5Y3KE8GZAsOg-20" value="" style="edgeStyle=elbowEdgeStyle;elbow=vertical;html=1;rounded=0;" parent="ALuSZKdQ5Y3KE8GZAsOg-17" source="ALuSZKdQ5Y3KE8GZAsOg-18" target="ALuSZKdQ5Y3KE8GZAsOg-19" edge="1"><mxGeometry relative="1" as="geometry"/></mxCell><mxCell id="ALuSZKdQ5Y3KE8GZAsOg-21" value="Warrior" style="whiteSpace=wrap;html=1;" parent="ALuSZKdQ5Y3KE8GZAsOg-17" vertex="1"><mxGeometry x="160" y="130" width="100" height="40" as="geometry"/></mxCell><mxCell id="ALuSZKdQ5Y3KE8GZAsOg-22" value="" style="edgeStyle=elbowEdgeStyle;elbow=vertical;html=1;rounded=0;" parent="ALuSZKdQ5Y3KE8GZAsOg-17" source="ALuSZKdQ5Y3KE8GZAsOg-18" target="ALuSZKdQ5Y3KE8GZAsOg-21" edge="1"><mxGeometry relative="1" as="geometry"/></mxCell><mxCell id="ALuSZKdQ5Y3KE8GZAsOg-24" value="Race Model" style="swimlane;html=1;startSize=20;horizontal=1;childLayout=treeLayout;horizontalTree=0;resizable=0;containerType=tree;" parent="WIyWlLk6GJQsqaUBKTNV-1" vertex="1"><mxGeometry x="450" y="590" width="280" height="190" as="geometry"/></mxCell><mxCell id="ALuSZKdQ5Y3KE8GZAsOg-25" value="Race" style="whiteSpace=wrap;html=1;" parent="ALuSZKdQ5Y3KE8GZAsOg-24" vertex="1"><mxGeometry x="90" y="40" width="100" height="40" as="geometry"/></mxCell><mxCell id="ALuSZKdQ5Y3KE8GZAsOg-26" value="Orc" style="whiteSpace=wrap;html=1;" parent="ALuSZKdQ5Y3KE8GZAsOg-24" vertex="1"><mxGeometry x="20" y="130" width="100" height="40" as="geometry"/></mxCell><mxCell id="ALuSZKdQ5Y3KE8GZAsOg-27" value="" style="edgeStyle=elbowEdgeStyle;elbow=vertical;html=1;rounded=0;" parent="ALuSZKdQ5Y3KE8GZAsOg-24" source="ALuSZKdQ5Y3KE8GZAsOg-25" target="ALuSZKdQ5Y3KE8GZAsOg-26" edge="1"><mxGeometry relative="1" as="geometry"/></mxCell><mxCell id="ALuSZKdQ5Y3KE8GZAsOg-28" value="Human" style="whiteSpace=wrap;html=1;" parent="ALuSZKdQ5Y3KE8GZAsOg-24" vertex="1"><mxGeometry x="160" y="130" width="100" height="40" as="geometry"/></mxCell><mxCell id="ALuSZKdQ5Y3KE8GZAsOg-29" value="" style="edgeStyle=elbowEdgeStyle;elbow=vertical;html=1;rounded=0;" parent="ALuSZKdQ5Y3KE8GZAsOg-24" source="ALuSZKdQ5Y3KE8GZAsOg-25" target="ALuSZKdQ5Y3KE8GZAsOg-28" edge="1"><mxGeometry relative="1" as="geometry"/></mxCell><mxCell id="ALuSZKdQ5Y3KE8GZAsOg-57" style="edgeStyle=orthogonalEdgeStyle;rounded=0;orthogonalLoop=1;jettySize=auto;html=1;entryX=0.443;entryY=1;entryDx=0;entryDy=0;entryPerimeter=0;" parent="WIyWlLk6GJQsqaUBKTNV-1" source="ALuSZKdQ5Y3KE8GZAsOg-39" target="ALuSZKdQ5Y3KE8GZAsOg-11" edge="1"><mxGeometry relative="1" as="geometry"/></mxCell><mxCell id="ALuSZKdQ5Y3KE8GZAsOg-58" style="edgeStyle=orthogonalEdgeStyle;rounded=0;orthogonalLoop=1;jettySize=auto;html=1;entryX=0.385;entryY=1;entryDx=0;entryDy=0;entryPerimeter=0;" parent="WIyWlLk6GJQsqaUBKTNV-1" source="ALuSZKdQ5Y3KE8GZAsOg-39" target="ALuSZKdQ5Y3KE8GZAsOg-5" edge="1"><mxGeometry relative="1" as="geometry"><Array as="points"><mxPoint x="414" y="378"/><mxPoint x="191" y="378"/></Array></mxGeometry></mxCell><mxCell id="ALuSZKdQ5Y3KE8GZAsOg-39" value="Character" style="swimlane;fontStyle=0;childLayout=stackLayout;horizontal=1;startSize=26;fillColor=none;horizontalStack=0;resizeParent=1;resizeParentMax=0;resizeLast=0;collapsible=1;marginBottom=0;" parent="WIyWlLk6GJQsqaUBKTNV-1" vertex="1"><mxGeometry x="314" y="444" width="200" height="108" as="geometry"/></mxCell><mxCell id="ALuSZKdQ5Y3KE8GZAsOg-40" value="Race Race" style="text;strokeColor=none;fillColor=none;align=left;verticalAlign=top;spacingLeft=4;spacingRight=4;overflow=hidden;rotatable=0;points=[[0,0.5],[1,0.5]];portConstraint=eastwest;" parent="ALuSZKdQ5Y3KE8GZAsOg-39" vertex="1"><mxGeometry y="26" width="200" height="26" as="geometry"/></mxCell><mxCell id="ALuSZKdQ5Y3KE8GZAsOg-42" value="CharacterClass ClassType" style="text;strokeColor=none;fillColor=none;align=left;verticalAlign=top;spacingLeft=4;spacingRight=4;overflow=hidden;rotatable=0;points=[[0,0.5],[1,0.5]];portConstraint=eastwest;" parent="ALuSZKdQ5Y3KE8GZAsOg-39" vertex="1"><mxGeometry y="52" width="200" height="28" as="geometry"/></mxCell><mxCell id="ALuSZKdQ5Y3KE8GZAsOg-47" value="CommonStates" style="text;strokeColor=none;fillColor=none;align=left;verticalAlign=top;spacingLeft=4;spacingRight=4;overflow=hidden;rotatable=0;points=[[0,0.5],[1,0.5]];portConstraint=eastwest;" parent="ALuSZKdQ5Y3KE8GZAsOg-39" vertex="1"><mxGeometry y="80" width="200" height="28" as="geometry"/></mxCell><mxCell id="ALuSZKdQ5Y3KE8GZAsOg-48" style="edgeStyle=orthogonalEdgeStyle;rounded=0;orthogonalLoop=1;jettySize=auto;html=1;entryX=0.571;entryY=-0.011;entryDx=0;entryDy=0;entryPerimeter=0;" parent="WIyWlLk6GJQsqaUBKTNV-1" source="ALuSZKdQ5Y3KE8GZAsOg-42" target="ALuSZKdQ5Y3KE8GZAsOg-17" edge="1"><mxGeometry relative="1" as="geometry"/></mxCell><mxCell id="ALuSZKdQ5Y3KE8GZAsOg-49" style="edgeStyle=orthogonalEdgeStyle;rounded=0;orthogonalLoop=1;jettySize=auto;html=1;entryX=0.607;entryY=0.011;entryDx=0;entryDy=0;entryPerimeter=0;" parent="WIyWlLk6GJQsqaUBKTNV-1" source="ALuSZKdQ5Y3KE8GZAsOg-40" target="ALuSZKdQ5Y3KE8GZAsOg-24" edge="1"><mxGeometry relative="1" as="geometry"/></mxCell><mxCell id="ALuSZKdQ5Y3KE8GZAsOg-56" style="edgeStyle=orthogonalEdgeStyle;rounded=0;orthogonalLoop=1;jettySize=auto;html=1;" parent="WIyWlLk6GJQsqaUBKTNV-1" source="ALuSZKdQ5Y3KE8GZAsOg-11" edge="1"><mxGeometry relative="1" as="geometry"><mxPoint x="314" y="305" as="targetPoint"/><Array as="points"><mxPoint x="314" y="305"/></Array></mxGeometry></mxCell></root></mxGraphModel></diagram></mxfile>